<svg xmlns="http://www.w3.org/2000/svg" xmlns:xlink="http://www.w3.org/1999/xlink" width="29" height="29" viewBox="0 0 29 29">
  <metadata><?xpacket begin="﻿" id="W5M0MpCehiHzreSzNTczkc9d"?>
<x:xmpmeta xmlns:x="adobe:ns:meta/" x:xmptk="Adobe XMP Core 5.6-c142 79.160924, 2017/07/13-01:06:39        ">
   <rdf:RDF xmlns:rdf="http://www.w3.org/1999/02/22-rdf-syntax-ns#">
      <rdf:Description rdf:about=""/>
   </rdf:RDF>
</x:xmpmeta>
                                                                                                    
                                                                                                    
                                                                                                    
                                                                                                    
                                                                                                    
                                                                                                    
                                                                                                    
                                                                                                    
                                                                                                    
                                                                                                    
                                                                                                    
                                                                                                    
                                                                                                    
                                                                                                    
                                                                                                    
                                                                                                    
                                                                                                    
                                                                                                    
                                                                                                    
                                                                                                    
                           
<?xpacket end="w"?></metadata>
<defs>
    <style>
      .cls-1 {
        fill: #da491c;
        fill-rule: evenodd;
        filter: url(#filter);
      }
    </style>
    <filter id="filter" x="0" y="0" width="29" height="29" filterUnits="userSpaceOnUse">
      <feFlood result="flood" flood-color="#fff"/>
      <feComposite result="composite" operator="in" in2="SourceGraphic"/>
      <feBlend result="blend" in2="SourceGraphic"/>
    </filter>
  </defs>
  <path id="scan" class="cls-1" d="M13.452,6.979h-7.1a7.187,7.187,0,0,0-1.787,4.177h6.143a0.967,0.967,0,0,1,0,1.934H4.645a7.361,7.361,0,0,0,.616,1.934h5.448a0.967,0.967,0,0,1,0,1.933h-4.1L6.642,17a7.051,7.051,0,0,0,5.073,2.146,6.9,6.9,0,0,0,3.669-1.03V8.943A1.927,1.927,0,0,0,13.452,6.979ZM28.2,24.289l-6.339-6.46a12.113,12.113,0,0,0-1.9-14.336,11.543,11.543,0,0,0-16.544,0,12.083,12.083,0,0,0,0,16.859,11.544,11.544,0,0,0,14.74,1.508l6.209,6.328a2.674,2.674,0,0,0,3.829,0A2.8,2.8,0,0,0,28.2,24.289ZM18.118,18.468a8.962,8.962,0,0,1-12.844,0,9.382,9.382,0,0,1,0-13.089,8.963,8.963,0,0,1,12.844,0A9.392,9.392,0,0,1,18.118,18.468Z"/>
</svg>
